<svg width="54.297" height="58.711" viewBox="0 0 54.297 58.711" xmlns="http://www.w3.org/2000/svg"><g id="svgGroup" stroke-linecap="round" fill-rule="evenodd" font-size="9pt" stroke="#ffffff" stroke-width="0.25mm" fill="#ffffff" style="stroke:#ffffff;stroke-width:0.25mm;fill:#ffffff"><path d="M 54.297 15.274 L 47.617 18.086 Q 46.836 15.547 45.528 13.438 Q 44.219 11.328 42.403 9.824 Q 40.586 8.321 38.281 7.481 Q 35.977 6.641 33.242 6.641 A 15.299 15.299 0 0 0 29.792 7.018 A 13.097 13.097 0 0 0 27.871 7.617 A 15.497 15.497 0 0 0 23.496 10.254 A 18.009 18.009 0 0 0 20.117 14.141 A 24.981 24.981 0 0 0 17.715 18.887 A 29.423 29.423 0 0 0 16.27 24.102 Q 15.781 26.797 15.781 29.375 A 35.492 35.492 0 0 0 16.738 37.539 Q 17.696 41.602 19.785 44.844 Q 21.875 48.086 25.196 50.098 A 13.524 13.524 0 0 0 29.634 51.778 A 18.686 18.686 0 0 0 33.242 52.11 Q 35.09 52.11 36.355 51.518 A 4.531 4.531 0 0 0 37.266 50.957 Q 38.353 50.09 38.622 48.24 A 9.226 9.226 0 0 0 38.711 46.914 L 38.711 29.649 L 54.219 29.649 L 54.219 57.578 L 49.727 57.578 L 46.992 53.164 A 25.685 25.685 0 0 1 38.731 57.363 Q 34.219 58.711 29.531 58.711 Q 25.391 58.711 21.582 57.696 Q 17.774 56.68 14.492 54.805 A 28.462 28.462 0 0 1 8.535 50.274 A 28.633 28.633 0 0 1 3.965 44.375 Q 2.071 41.133 1.035 37.324 A 30.176 30.176 0 0 1 0 29.375 A 30.176 30.176 0 0 1 1.035 21.426 A 29.313 29.313 0 0 1 3.965 14.356 A 28.407 28.407 0 0 1 8.535 8.438 A 28.462 28.462 0 0 1 14.492 3.906 Q 17.774 2.031 21.582 1.016 Q 25.391 0 29.531 0 A 32.484 32.484 0 0 1 37.324 0.938 A 27.009 27.009 0 0 1 44.414 3.77 Q 47.696 5.664 50.254 8.535 A 21.378 21.378 0 0 1 53.909 14.322 A 24.637 24.637 0 0 1 54.297 15.274 Z" vector-effect="non-scaling-stroke"/></g></svg>